HIERARCHY
ROOT Hips
{
	OFFSET 0.000000 35.082581 0.000000
	CHANNELS 6 Xposition Yposition Zposition Xrotation Yrotation Zrotation 
	JOINT Spine
	{
		OFFSET 0.000000 6.876099 0.125700
		CHANNELS 3 Xrotation Yrotation Zrotation
		JOINT Spine1
		{
			OFFSET 0.000000 5.730043 0.104720
			CHANNELS 3 Xrotation Yrotation Zrotation
			JOINT Spine1_split
			{
				OFFSET 0.000000 5.730043 0.104720
				CHANNELS 3 Xrotation Yrotation Zrotation
				JOINT Spine2
				{
					OFFSET 0.000000 5.730043 0.104720
					CHANNELS 3 Xrotation Yrotation Zrotation
					JOINT Neck
					{
						OFFSET 0.000000 10.314075 0.188496
						CHANNELS 3 Xrotation Yrotation Zrotation
						JOINT Head
						{
							OFFSET 0.000000 7.643700 -2.377400
							CHANNELS 3 Xrotation Yrotation Zrotation
							JOINT HeadTop_End
							{
								OFFSET 0.000000 43.788605 -13.619600
								CHANNELS 3 Xrotation Yrotation Zrotation
								End Site
								{
									OFFSET 0.000000 0.000000 0.000000
								}
							}
						}
					}
					JOINT LeftShoulder
					{
						OFFSET 2.196100 4.412489 0.087492
						CHANNELS 3 Xrotation Yrotation Zrotation
						JOINT LeftShoulder_split
						{
							OFFSET 2.196100 4.412489 0.087492
							CHANNELS 3 Xrotation Yrotation Zrotation
							JOINT LeftArm
							{
								OFFSET 8.771219 -2.981674 -0.026999
								CHANNELS 3 Xrotation Yrotation Zrotation
								JOINT LeftForeArm
								{
									OFFSET 8.512804 0.000000 -0.000000
									CHANNELS 3 Xrotation Yrotation Zrotation
									JOINT LeftHand
									{
										OFFSET 18.484802 0.000000 -0.000000
										CHANNELS 3 Xrotation Yrotation Zrotation
										JOINT LeftHandThumb1
										{
											OFFSET 2.499420 -1.158070 2.653252
											CHANNELS 3 Xrotation Yrotation Zrotation
											JOINT LeftHandThumb2
											{
												OFFSET 2.370079 -1.368366 1.368366
												CHANNELS 3 Xrotation Yrotation Zrotation
												JOINT LeftHandThumb3
												{
													OFFSET 2.676727 -1.545410 1.545409
													CHANNELS 3 Xrotation Yrotation Zrotation
													JOINT LeftHandThumb4
													{
														OFFSET 1.692226 -0.977005 0.977007
														CHANNELS 3 Xrotation Yrotation Zrotation
														End Site
														{
															OFFSET 0.000000 0.000000 0.000000
														}
													}
												}
											}
										}
										JOINT LeftHandIndex1
										{
											OFFSET 7.924831 -0.457527 2.345128
											CHANNELS 3 Xrotation Yrotation Zrotation
											JOINT LeftHandIndex2
											{
												OFFSET 3.643303 0.000000 0.000000
												CHANNELS 3 Xrotation Yrotation Zrotation
												JOINT LeftHandIndex3
												{
													OFFSET 3.810799 0.000000 0.000000
													CHANNELS 3 Xrotation Yrotation Zrotation
													JOINT LeftHandIndex4
													{
														OFFSET 2.403702 0.000000 0.000000
														CHANNELS 3 Xrotation Yrotation Zrotation
														End Site
														{
															OFFSET 0.000000 0.000000 0.000000
														}
													}
												}
											}
										}
										JOINT LeftHandMiddle1
										{
											OFFSET 8.563995 0.000000 -0.000000
											CHANNELS 3 Xrotation Yrotation Zrotation
											JOINT LeftHandMiddle2
											{
												OFFSET 3.861618 0.000000 0.000000
												CHANNELS 3 Xrotation Yrotation Zrotation
												JOINT LeftHandMiddle3
												{
													OFFSET 3.701603 0.000000 0.000000
													CHANNELS 3 Xrotation Yrotation Zrotation
													JOINT LeftHandMiddle4
													{
														OFFSET 2.322544 0.000000 0.000000
														CHANNELS 3 Xrotation Yrotation Zrotation
														End Site
														{
															OFFSET 0.000000 0.000000 0.000000
														}
													}
												}
											}
										}
										JOINT LeftHandRing1
										{
											OFFSET 8.426460 -0.424637 -3.286992
											CHANNELS 3 Xrotation Yrotation Zrotation
											JOINT LeftHandRing2
											{
												OFFSET 3.126408 0.000000 0.000000
												CHANNELS 3 Xrotation Yrotation Zrotation
												JOINT LeftHandRing3
												{
													OFFSET 3.085026 0.000000 0.000000
													CHANNELS 3 Xrotation Yrotation Zrotation
													JOINT LeftHandRing4
													{
														OFFSET 1.644005 0.000000 0.000000
														CHANNELS 3 Xrotation Yrotation Zrotation
														End Site
														{
															OFFSET 0.000000 0.000000 0.000000
														}
													}
												}
											}
										}
									}
								}
							}
						}
					}
					JOINT RightShoulder
					{
						OFFSET -2.196100 4.412496 0.070690
						CHANNELS 3 Xrotation Yrotation Zrotation
						JOINT RightShoulder_split
						{
							OFFSET -2.196100 4.412496 0.070690
							CHANNELS 3 Xrotation Yrotation Zrotation
							JOINT RightArm
							{
								OFFSET -8.771282 -2.981682 -0.094208
								CHANNELS 3 Xrotation Yrotation Zrotation
								JOINT RightForeArm
								{
									OFFSET -8.494598 0.000000 0.000000
									CHANNELS 3 Xrotation Yrotation Zrotation
									JOINT RightHand
									{
										OFFSET -18.483803 0.000000 0.000001
										CHANNELS 3 Xrotation Yrotation Zrotation
										JOINT RightHandThumb1
										{
											OFFSET -2.527351 -1.008072 2.575253
											CHANNELS 3 Xrotation Yrotation Zrotation
											JOINT RightHandThumb2
											{
												OFFSET -2.321518 -1.340328 1.340329
												CHANNELS 3 Xrotation Yrotation Zrotation
												JOINT RightHandThumb3
												{
													OFFSET -2.657753 -1.534454 1.534455
													CHANNELS 3 Xrotation Yrotation Zrotation
													JOINT RightHandThumb4
													{
														OFFSET -1.807510 -1.043568 1.043567
														CHANNELS 3 Xrotation Yrotation Zrotation
														End Site
														{
															OFFSET 0.000000 0.000000 0.000000
														}
													}
												}
											}
										}
										JOINT RightHandIndex1
										{
											OFFSET -8.811420 0.015533 2.887987
											CHANNELS 3 Xrotation Yrotation Zrotation
											JOINT RightHandIndex2
											{
												OFFSET -3.537502 0.000000 0.000000
												CHANNELS 3 Xrotation Yrotation Zrotation
												JOINT RightHandIndex3
												{
													OFFSET -3.356201 0.000000 0.000000
													CHANNELS 3 Xrotation Yrotation Zrotation
													JOINT RightHandIndex4
													{
														OFFSET -1.933098 0.000000 0.000000
														CHANNELS 3 Xrotation Yrotation Zrotation
														End Site
														{
															OFFSET 0.000000 0.000000 0.000000
														}
													}
												}
											}
										}
										JOINT RightHandMiddle1
										{
											OFFSET -8.178135 0.000000 0.000000
											CHANNELS 3 Xrotation Yrotation Zrotation
											JOINT RightHandMiddle2
											{
												OFFSET -3.901302 0.000000 0.000000
												CHANNELS 3 Xrotation Yrotation Zrotation
												JOINT RightHandMiddle3
												{
													OFFSET -3.909599 0.000000 0.000000
													CHANNELS 3 Xrotation Yrotation Zrotation
													JOINT RightHandMiddle4
													{
														OFFSET -2.376003 0.000000 0.000000
														CHANNELS 3 Xrotation Yrotation Zrotation
														End Site
														{
															OFFSET 0.000000 0.000000 0.000000
														}
													}
												}
											}
										}
										JOINT RightHandRing1
										{
											OFFSET -7.559013 0.014137 -2.865403
											CHANNELS 3 Xrotation Yrotation Zrotation
											JOINT RightHandRing2
											{
												OFFSET -3.449306 0.000000 0.000000
												CHANNELS 3 Xrotation Yrotation Zrotation
												JOINT RightHandRing3
												{
													OFFSET -3.362106 0.000000 0.000000
													CHANNELS 3 Xrotation Yrotation Zrotation
													JOINT RightHandRing4
													{
														OFFSET -2.076401 0.000000 0.000000
														CHANNELS 3 Xrotation Yrotation Zrotation
														End Site
														{
															OFFSET 0.000000 0.000000 0.000000
														}
													}
												}
											}
										}
									}
								}
							}
						}
					}
				}
			}
		}
	}
	JOINT LeftUpLeg
	{
		OFFSET 10.205400 -3.823500 0.155100
		CHANNELS 3 Xrotation Yrotation Zrotation
		JOINT LeftLeg
		{
			OFFSET 0.708757 -12.982077 0.567790
			CHANNELS 3 Xrotation Yrotation Zrotation
			JOINT LeftFoot
			{
				OFFSET -0.708756 -10.717838 -2.184338
				CHANNELS 3 Xrotation Yrotation Zrotation
				JOINT LeftToeBase
				{
					OFFSET 0.108149 -7.191104 7.560241
					CHANNELS 3 Xrotation Yrotation Zrotation
					JOINT LeftToe_End
					{
						OFFSET 0.070230 0.081724 4.490308
						CHANNELS 3 Xrotation Yrotation Zrotation
						End Site
						{
							OFFSET 0.000000 0.000000 0.000000
						}
					}
				}
			}
		}
	}
	JOINT RightUpLeg
	{
		OFFSET -10.205400 -3.823500 0.005500
		CHANNELS 3 Xrotation Yrotation Zrotation
		JOINT RightLeg
		{
			OFFSET -0.708756 -12.982134 0.610632
			CHANNELS 3 Xrotation Yrotation Zrotation
			JOINT RightFoot
			{
				OFFSET 0.708754 -10.717769 -1.945823
				CHANNELS 3 Xrotation Yrotation Zrotation
				JOINT RightToeBase
				{
					OFFSET -0.108140 -7.191069 7.372968
					CHANNELS 3 Xrotation Yrotation Zrotation
					JOINT RightToe_End
					{
						OFFSET -0.070227 0.081735 4.479403
						CHANNELS 3 Xrotation Yrotation Zrotation
						End Site
						{
							OFFSET 0.000000 0.000000 0.000000
						}
					}
				}
			}
		}
	}
}
MOTION
Frames: 6
Frame Time: 0.016667
1.078880 30.925995 13.662178 11.243527 -1.549442 -3.000848 10.072324 1.614281 5.086003 2.029110 -0.047010 0.508498 0.000000 0.000000 0.000000 4.987202 -0.052526 0.186541 -3.841293 -0.341669 -0.277917 -16.135760 0.809280 -3.139613 0.000000 0.000000 0.000000 0.557752 -4.314608 -11.777504 0.000000 0.000000 0.000000 13.923796 -4.816975 -56.121397 -0.000000 -89.999982 0.000006 3.946675 -2.534491 11.903166 -0.820514 6.623777 -5.864580 14.168492 15.386731 18.402799 -0.847740 -39.830460 12.903340 -0.000001 -0.000005 -0.000001 9.947259 5.735762 -90.836250 4.054205 5.569247 -72.086404 5.462416 5.838178 -86.184795 0.000000 0.000001 -0.000001 4.883424 8.108006 -80.603370 4.657602 5.728468 -78.210782 3.078746 5.154612 -61.676116 0.000002 -0.000001 0.000001 2.753105 7.678713 -78.443527 5.946862 5.850288 -90.939850 3.878858 5.509754 -70.270175 -0.000000 -0.000003 0.000001 0.567977 4.488712 11.813845 0.000000 0.000000 0.000000 -16.187045 25.518739 44.451168 -0.003032 90.272261 0.002266 7.843974 11.318557 -12.809351 5.535793 -3.771053 -3.032820 2.457523 -9.078665 -15.939553 -8.950787 17.083958 -15.511802 0.000001 -0.000002 0.000001 -3.723510 -3.298339 73.104990 3.463141 -4.501836 75.128516 2.055835 -3.864252 56.013900 -0.000001 -0.000002 0.000003 -3.073201 -4.980229 74.622337 3.766074 -4.571306 78.957000 3.246664 -4.438876 72.351941 -0.000001 -0.000001 -0.000002 -3.819509 -5.359664 78.849541 3.124248 -4.398155 70.762870 2.797515 -4.270505 66.441847 -0.000001 0.000001 -0.000000 -28.660959 8.197155 1.825898 140.909166 8.155216 1.885606 -36.876874 5.920279 -5.406893 -0.230039 0.000006 0.000001 0.000001 0.000001 -0.000001 -31.316055 -9.775918 6.385111 50.356290 0.667884 1.365418 -29.975726 3.259906 -8.583549 1.449279 -0.000007 -0.000001 0.000000 0.000000 -0.000000 
1.135329 31.041889 15.516505 12.180376 -1.009555 -1.861179 10.949306 1.570992 3.711859 2.512568 0.388421 -0.101538 0.000000 0.000000 0.000000 5.375354 0.319863 -0.444560 -4.070064 -0.572482 0.096463 -17.422067 0.090383 -1.909409 0.000001 0.000000 0.000000 0.550754 -4.131762 -11.649575 0.000000 0.000000 0.000000 15.857047 -4.083521 -55.500519 0.000143 -84.180893 0.000149 -0.007477 -3.522481 9.556835 -0.816968 6.649056 -5.842820 14.164837 15.374466 18.442525 -0.841155 -39.967443 12.910987 0.000000 -0.000002 -0.000000 10.008331 5.729143 -90.997955 4.064109 5.572424 -72.188461 5.480210 5.839328 -86.359669 0.000002 0.000001 -0.000000 4.897380 8.110477 -80.744017 4.669143 5.730851 -78.326280 3.089620 5.160425 -61.797059 -0.000001 0.000001 -0.000000 2.740963 7.681211 -78.578936 5.961411 5.850050 -91.082465 3.892316 5.514536 -70.410057 -0.000000 0.000001 -0.000001 0.473740 5.340370 11.212088 0.000000 0.000000 0.000000 -18.532576 23.013679 45.080731 -0.000355 92.047352 0.000168 6.621912 11.435212 -18.486769 5.528103 -3.804577 -3.069128 2.442967 -9.034365 -15.978949 -8.976933 17.201029 -15.498579 -0.000002 0.000000 0.000003 -3.685745 -3.342021 73.312368 3.475280 -4.505029 75.283110 2.065122 -3.870488 56.151644 -0.000000 -0.000003 0.000003 -3.084181 -5.003714 74.836552 3.779356 -4.573890 79.123937 3.261427 -4.443549 72.542428 0.000000 0.000001 -0.000001 -3.868910 -5.381844 79.076781 3.134973 -4.401873 70.902671 2.810285 -4.276034 66.613291 -0.000001 0.000003 -0.000000 -68.890975 8.763385 1.513188 140.340266 13.381083 2.285176 -19.180418 2.463414 -3.424254 0.255890 0.000001 -0.000006 0.000002 0.000000 -0.000000 -27.556969 -8.556826 6.301156 50.627971 -1.238503 0.203629 -34.055627 2.974789 -7.860154 0.265593 -0.020812 1.230299 0.000000 -0.000000 -0.000000 
1.116087 30.764187 17.529493 12.575802 -0.633360 -1.577946 11.716326 1.880950 2.992501 2.983596 0.736434 -0.674759 0.000000 0.000000 0.000000 5.744172 0.609385 -1.028370 -3.883339 -0.735808 0.343320 -18.155242 -0.681946 -0.632056 -0.000001 0.000000 0.000000 0.538962 -4.141299 -11.327394 0.000000 0.000000 0.000000 18.370863 -3.661148 -55.120883 0.000064 -80.178887 0.000074 -2.644610 -4.276821 7.635046 -0.807175 6.718945 -5.782583 14.154857 15.340509 18.552317 -0.825625 -40.346235 12.932220 -0.000004 -0.000006 0.000001 10.177085 5.709233 -91.444833 4.091545 5.581141 -72.470725 5.529383 5.842246 -86.843034 0.000000 -0.000001 0.000001 4.935983 8.117149 -81.132887 4.701054 5.737326 -78.645721 3.119732 5.176400 -62.131417 0.000001 -0.000001 -0.000001 2.707396 7.688538 -78.953299 6.001573 5.849131 -91.476696 3.929513 5.527576 -70.796782 -0.000004 0.000005 -0.000003 0.447442 5.899447 10.987367 0.000000 0.000000 0.000000 -20.430619 18.612583 45.715204 -0.000027 95.070612 -0.000055 7.385909 12.237852 -22.965997 5.508427 -3.890097 -3.161980 2.405783 -8.921129 -16.079556 -9.044134 17.500094 -15.464363 0.000003 -0.000003 0.000002 -3.588224 -3.452411 73.842596 3.506341 -4.513035 75.678195 2.088928 -3.886327 56.503713 -0.000004 0.000003 -0.000001 -3.111905 -5.064222 75.383883 3.813423 -4.580274 79.550571 3.299192 -4.455199 73.029312 -0.000001 -0.000000 0.000001 -3.994941 -5.440466 79.657259 3.162442 -4.411282 71.260047 2.843017 -4.290004 67.051414 -0.000003 0.000000 0.000001 -95.208384 6.590474 3.842922 131.693601 10.642890 0.668742 -7.409502 -0.372738 0.778711 1.925033 -0.000010 0.000007 -0.000004 -0.000001 -0.000000 -22.725884 -7.742474 7.340542 51.553240 -1.417707 -0.867649 -39.012408 0.868126 -7.928204 -0.572971 -0.045294 1.812698 0.000000 0.000001 -0.000000 
1.103523 30.415302 19.793652 12.289827 -0.572149 -1.823494 12.249505 2.635989 2.619078 3.317690 1.004296 -1.066091 0.000000 0.000000 0.000000 5.969677 0.834222 -1.426133 -3.184219 -0.852758 0.456091 -17.958347 -1.476783 0.463308 -0.000000 -0.000000 0.000000 0.522139 -4.229558 -10.713293 0.000000 0.000000 0.000000 21.185304 -3.140006 -55.477600 0.000076 -77.628255 0.000101 -2.809223 -4.161623 6.201268 -0.792430 6.824517 -5.691693 14.139996 15.289267 18.718256 -0.799491 -40.918666 12.965644 -0.000003 -0.000003 -0.000002 10.431852 5.674565 -92.119588 4.133054 5.594006 -72.897113 5.603748 5.845847 -87.573277 0.000001 0.000001 -0.000001 4.994360 8.126730 -81.720358 4.749331 5.746767 -79.128274 3.165407 5.200198 -62.636564 -0.000001 -0.000001 -0.000001 2.656584 7.700877 -79.518818 6.062271 5.847278 -92.072173 3.985893 5.546793 -71.381009 0.000001 0.000003 -0.000002 0.476066 6.147942 11.241208 0.000000 0.000000 0.000000 -21.265162 13.374113 46.275420 0.000025 97.989917 -0.000089 9.380805 14.068469 -25.678516 5.481879 -4.005303 -3.287308 2.355697 -8.768414 -16.214960 -9.135596 17.903027 -15.417533 -0.000003 -0.000003 0.000001 -3.454681 -3.598491 74.557826 3.548275 -4.523517 76.210677 2.121180 -3.907426 56.978247 0.000001 -0.000002 -0.000000 -3.148546 -5.147000 76.121495 3.859378 -4.588482 80.125564 3.350257 -4.470422 73.685515 -0.000007 -0.000002 0.000004 -4.164339 -5.524050 80.439117 3.199529 -4.423648 71.741698 2.887283 -4.308445 67.641952 -0.000001 0.000000 -0.000001 -104.727721 3.969150 5.269683 119.318542 4.973238 -1.517331 -5.996328 -1.015614 -0.299661 3.699756 -0.000005 0.000004 0.000001 0.000000 -0.000000 -16.038478 -6.947913 8.713627 50.764917 -0.696881 -1.762666 -42.364614 -1.744165 -7.973348 -2.213935 -0.094108 2.545029 0.000000 0.000000 -0.000000 
1.222871 29.927601 22.287010 11.229937 -0.763407 -2.886519 12.308964 3.786802 2.984420 3.337155 1.195935 -1.180667 0.000000 0.000000 0.000000 5.874702 1.001687 -1.551850 -1.902032 -0.938612 0.463574 -16.471262 -2.235370 1.240855 0.000001 -0.000000 0.000000 0.502968 -4.273000 -9.818011 0.000000 0.000000 0.000000 24.079229 -2.115451 -56.822044 0.000014 -75.922969 0.000005 -0.264757 -2.905617 5.031603 -0.773934 6.956888 -5.577693 14.121801 15.225081 18.926425 -0.762214 -41.636509 13.009922 -0.000000 -0.000003 0.000003 10.750811 5.623382 -92.964701 4.185235 5.609719 -73.431576 5.697013 5.849030 -88.488673 -0.000003 -0.000005 0.000000 5.067731 8.137909 -82.456776 4.809970 5.758027 -79.733149 3.222974 5.229450 -63.269811 -0.000001 0.000002 -0.000002 2.592848 7.718462 -80.227634 6.138282 5.844046 -92.818644 4.056833 5.570090 -72.113438 0.000002 -0.000001 0.000003 0.544197 6.092854 11.959969 0.000000 0.000000 0.000000 -19.126908 9.551840 46.232782 -0.000043 99.943406 -0.000035 10.224692 16.686939 -27.339024 5.453601 -4.127774 -3.420862 2.302412 -8.605653 -16.358848 -9.234108 18.331726 -15.366739 -0.000002 0.000001 0.000003 -3.309924 -3.750537 75.319945 3.593044 -4.534217 76.777610 2.155718 -3.929588 57.483432 -0.000003 -0.000003 0.000002 -3.186662 -5.236645 76.906619 3.908373 -4.596729 80.737672 3.404825 -4.485977 74.384168 0.000003 0.000001 -0.000002 -4.343986 -5.618693 81.270741 3.239144 -4.436494 72.254468 2.934631 -4.327533 68.270582 0.000001 0.000003 -0.000005 -105.550185 2.438424 5.247162 106.680561 0.186163 -2.651234 -9.317572 0.453832 -4.329286 4.301076 -0.000004 -0.000000 0.000001 -0.000000 0.000001 -8.214955 -6.144886 9.947615 49.338076 0.962756 -2.283872 -43.563616 -4.463302 -7.197417 -6.831949 -0.151726 1.776965 0.000000 0.000001 -0.000000 
1.319194 29.416096 24.792318 9.295582 -0.788594 -4.640935 11.940178 4.828954 3.984634 3.046582 1.298632 -1.033836 0.000000 0.000000 0.000000 5.465191 1.100709 -1.418278 -0.229914 -0.996102 0.429829 -13.913690 -2.892813 1.745210 0.000000 -0.000000 0.000000 0.484228 -4.216904 -8.753570 0.000000 0.000000 0.000000 26.718390 -0.445360 -58.949901 -0.000016 -74.504284 -0.000007 4.125066 -0.944028 3.852512 -0.752994 7.107118 -5.448306 14.101709 15.152327 19.162798 -0.713587 -42.451460 13.063379 -0.000001 -0.000003 -0.000001 11.111899 5.554898 -93.922717 4.244626 5.626964 -74.038219 5.802899 5.850859 -89.527476 0.000000 -0.000002 0.000001 5.151119 8.149478 -83.292538 4.878898 5.770015 -80.419624 3.288675 5.261907 -63.988525 0.000005 0.000000 -0.000001 2.520410 7.741325 -81.031869 6.224507 5.839193 -93.665786 4.137693 5.595425 -72.944672 -0.000001 0.000001 -0.000003 0.637466 5.782881 13.068252 0.000000 0.000000 0.000000 -15.441617 5.929116 46.019581 -0.000093 100.404382 0.000045 11.391530 19.897302 -27.728522 5.428725 -4.235330 -3.538407 2.255642 -8.462499 -16.485090 -9.321682 18.708295 -15.321275 -0.000000 -0.000002 0.000003 -3.180562 -3.881164 75.990267 3.632459 -4.543274 77.275797 2.186207 -3.948834 57.927408 -0.000002 0.000002 -0.000001 -3.219340 -5.316745 77.596461 3.951545 -4.603526 81.275624 3.452916 -4.499099 74.998127 -0.000002 -0.000002 0.000004 -4.501166 -5.706767 82.000984 3.274045 -4.447485 72.705089 2.976408 -4.343930 68.823097 -0.000001 0.000000 -0.000002 -101.658821 1.012166 5.009679 95.261447 -2.039392 -2.836932 -13.269376 1.386865 -8.578789 3.222382 -0.000004 0.000002 0.000001 -0.000000 0.000002 -0.439711 -5.573445 10.944117 48.205132 3.373952 -2.319046 -41.319260 -6.901263 -5.308309 -14.889770 -0.020657 0.114876 0.000000 -0.000000 0.000000 
